<mxfile host="app.diagrams.net" modified="2023-08-22T02:49:17.579Z" agent="Mozilla/5.0 (Windows NT 10.0; Win64; x64) AppleWebKit/537.36 (KHTML, like Gecko) Chrome/115.0.0.0 Safari/537.36" etag="pwUQNlADmT8zKXU1Uggi" version="21.6.8" type="github">
  <diagram name="Page-1" id="7ue-TGwMweR92Rgv9C6d">
    <mxGraphModel dx="1434" dy="782" grid="1" gridSize="10" guides="1" tooltips="1" connect="1" arrows="1" fold="1" page="1" pageScale="1" pageWidth="850" pageHeight="1100" math="0" shadow="0">
      <root>
        <mxCell id="0" />
        <mxCell id="1" parent="0" />
        <mxCell id="ifoJrx2qyjk6fv3XxSBu-2" value="" style="rounded=0;whiteSpace=wrap;html=1;" vertex="1" parent="1">
          <mxGeometry x="190" y="90" width="500" height="630" as="geometry" />
        </mxCell>
        <mxCell id="ifoJrx2qyjk6fv3XxSBu-3" value="player 1(komputer)" style="shape=umlActor;verticalLabelPosition=bottom;verticalAlign=top;html=1;outlineConnect=0;" vertex="1" parent="1">
          <mxGeometry x="50" y="390" width="80" height="120" as="geometry" />
        </mxCell>
        <mxCell id="ifoJrx2qyjk6fv3XxSBu-4" value="player 2&lt;br&gt;(user)" style="shape=umlActor;verticalLabelPosition=bottom;verticalAlign=top;html=1;outlineConnect=0;" vertex="1" parent="1">
          <mxGeometry x="730" y="380" width="80" height="120" as="geometry" />
        </mxCell>
        <mxCell id="ifoJrx2qyjk6fv3XxSBu-5" value="game tebak angka" style="text;html=1;strokeColor=none;fillColor=none;align=center;verticalAlign=middle;whiteSpace=wrap;rounded=0;" vertex="1" parent="1">
          <mxGeometry x="290" y="130" width="310" height="30" as="geometry" />
        </mxCell>
        <mxCell id="ifoJrx2qyjk6fv3XxSBu-6" value="random angka" style="ellipse;whiteSpace=wrap;html=1;" vertex="1" parent="1">
          <mxGeometry x="360" y="250" width="240" height="80" as="geometry" />
        </mxCell>
        <mxCell id="ifoJrx2qyjk6fv3XxSBu-7" value="" style="ellipse;whiteSpace=wrap;html=1;" vertex="1" parent="1">
          <mxGeometry x="320" y="420" width="250" height="80" as="geometry" />
        </mxCell>
        <mxCell id="ifoJrx2qyjk6fv3XxSBu-8" value="tebak angka" style="text;html=1;align=center;verticalAlign=middle;resizable=0;points=[];autosize=1;strokeColor=none;fillColor=none;" vertex="1" parent="1">
          <mxGeometry x="415" y="438" width="90" height="30" as="geometry" />
        </mxCell>
        <mxCell id="ifoJrx2qyjk6fv3XxSBu-12" value="" style="endArrow=none;html=1;rounded=0;" edge="1" parent="1" source="ifoJrx2qyjk6fv3XxSBu-6" target="ifoJrx2qyjk6fv3XxSBu-3">
          <mxGeometry width="50" height="50" relative="1" as="geometry">
            <mxPoint x="450" y="340" as="sourcePoint" />
            <mxPoint x="150" y="430" as="targetPoint" />
            <Array as="points">
              <mxPoint x="190" y="450" />
            </Array>
          </mxGeometry>
        </mxCell>
        <mxCell id="ifoJrx2qyjk6fv3XxSBu-14" value="" style="endArrow=none;html=1;rounded=0;exitX=0.976;exitY=0.7;exitDx=0;exitDy=0;exitPerimeter=0;" edge="1" parent="1" source="ifoJrx2qyjk6fv3XxSBu-7" target="ifoJrx2qyjk6fv3XxSBu-4">
          <mxGeometry width="50" height="50" relative="1" as="geometry">
            <mxPoint x="400" y="420" as="sourcePoint" />
            <mxPoint x="450" y="370" as="targetPoint" />
            <Array as="points">
              <mxPoint x="690" y="480" />
            </Array>
          </mxGeometry>
        </mxCell>
        <mxCell id="ifoJrx2qyjk6fv3XxSBu-15" value="Text" style="edgeLabel;html=1;align=center;verticalAlign=middle;resizable=0;points=[];" vertex="1" connectable="0" parent="ifoJrx2qyjk6fv3XxSBu-14">
          <mxGeometry x="0.3027" y="-2" relative="1" as="geometry">
            <mxPoint as="offset" />
          </mxGeometry>
        </mxCell>
      </root>
    </mxGraphModel>
  </diagram>
</mxfile>
